<mxfile host="app.diagrams.net" modified="2024-04-12T08:32:36.589Z" agent="Mozilla/5.0 (Windows NT 10.0; Win64; x64) AppleWebKit/537.36 (KHTML, like Gecko) Chrome/123.0.0.0 Safari/537.36 Edg/123.0.0.0" version="24.2.1" etag="5ZYv_w_3Tgru6qeu0F4x" type="github">
  <diagram name="第 1 页" id="mxPnKl8s4po2C4BsKXBh">
    <mxGraphModel>
      <root>
        <mxCell id="0" />
        <mxCell id="1" parent="0" />
      </root>
    </mxGraphModel>
  </diagram>
</mxfile>
